<svg
  xmlns="http://www.w3.org/2000/svg"
  viewBox="0 0 880 462"
>
  <path d="M0 0 C3.4776714 0.00461026 6.9549912 -0.00223342 10.43261719 -0.02050781 C49.12913685 -0.22165697 87.63591868 2.37229306 125.81396484 8.90283203 C128.70204712 9.36964021 131.57512099 9.67347528 134.49316406 9.87817383 C139.15532622 10.20925491 139.15532622 10.20925491 141.36816406 11.31567383 C143.41600997 11.62509907 145.4692807 11.89891733 147.52441406 12.15551758 C155.42699783 13.24896317 163.12831194 14.96557119 170.86816406 16.87817383 C171.9291481 17.1380307 171.9291481 17.1380307 173.01156616 17.40313721 C197.01032619 23.30071515 220.41945647 30.75309617 243.59277344 39.31347656 C245.54381429 40.01800002 247.50635676 40.69107805 249.47631836 41.34082031 C251.8167994 42.12980645 254.04125635 42.97611274 256.29394531 43.97973633 C257.35198364 44.44947876 257.35198364 44.44947876 258.43139648 44.92871094 C259.17365479 45.26265869 259.91591309 45.59660645 260.68066406 45.94067383 C261.8588269 46.46963257 261.8588269 46.46963257 263.06079102 47.00927734 C264.69444114 47.74527799 266.32716708 48.48333327 267.95898438 49.22338867 C269.51162116 49.9273304 271.0655646 50.62840068 272.62109375 51.32592773 C281.76217317 55.43305696 290.41475232 59.95132004 298.93847656 65.22192383 C301.94126666 67.0759508 305.00257733 68.78138118 308.11816406 70.44067383 C318.10449948 75.85300289 326.63586752 82.058488 335.14550781 89.52661133 C337.55987189 91.63909275 340.01685071 93.62181993 342.61816406 95.50317383 C352.57410125 102.83801503 360.10101307 111.42427386 367.36816406 121.31567383 C367.80644531 121.91057617 368.24472656 122.50547852 368.69628906 123.1184082 C372.75733228 128.67787851 376.20933477 133.7144536 378.36816406 140.31567383 C379.02816406 140.64567383 379.68816406 140.97567383 380.36816406 141.31567383 C388.57806747 155.4706797 391.75894597 171.38854682 391.68066406 187.56567383 C391.67574951 188.76281006 391.67083496 189.95994629 391.66577148 191.19335938 C391.47015197 205.93303901 388.32038233 220.18014622 381.36816406 233.31567383 C380.70816406 233.31567383 380.04816406 233.31567383 379.36816406 233.31567383 C379.10003906 234.20125977 378.83191406 235.0868457 378.55566406 235.99926758 C371.95055135 254.445783 354.29423152 272.12761551 338.83691406 283.44458008 C336.78235913 285.00175067 334.77500835 286.5930514 332.77441406 288.21801758 C332.12287354 288.7462915 331.47133301 289.27456543 330.80004883 289.81884766 C329.50031806 290.87578382 328.20376026 291.9366376 326.91088867 293.00195312 C322.91660712 296.24406137 318.87746671 298.85885164 314.36816406 301.31567383 C313.08513099 302.06431756 311.80528856 302.81845028 310.52832031 303.57739258 C306.87848527 305.73971411 303.22021879 307.88724958 299.55859375 310.02954102 C298.19462931 310.83040645 296.8328824 311.63507604 295.47460938 312.44555664 C286.16081477 318.00124276 276.50110902 322.73330161 266.68066406 327.31567383 C266.05912445 327.60729401 265.43758484 327.89891418 264.79721069 328.19937134 C263.00756889 329.03649383 261.2133222 329.86374975 259.41894531 330.69067383 C258.37391846 331.1727832 257.3288916 331.65489258 256.25219727 332.15161133 C253.58249164 333.22916626 251.18620398 333.79756783 248.36816406 334.31567383 C246.81736323 334.85090005 245.27951315 335.4247514 243.75488281 336.03051758 C220.58591582 345.06680849 197.08011578 352.36935601 172.93066406 358.25317383 C172.17282623 358.43871826 171.4149884 358.6242627 170.63418579 358.81542969 C159.94317788 361.41579956 149.22454849 363.53376463 138.36816406 365.31567383 C136.82817749 365.57465454 136.82817749 365.57465454 135.25708008 365.83886719 C125.08449365 367.48226708 114.84626903 368.68160643 104.61816406 369.92016602 C102.47972243 370.18040305 100.3416846 370.44398376 98.20410156 370.71118164 C69.34652865 374.31837826 40.76672728 375.67295935 11.71582031 375.63134766 C8.25182025 375.62673772 4.78817322 375.63358143 1.32421875 375.65185547 C-30.53757907 375.81799108 -62.27735507 374.46586599 -93.81933594 369.69067383 C-96.79122812 369.25562066 -99.76411933 368.8277272 -102.73730469 368.40161133 C-103.42339813 368.30201111 -104.10949158 368.20241089 -104.81637573 368.09979248 C-109.90422619 367.37613269 -114.98287736 366.88759498 -120.10961914 366.54858398 C-125.03787858 366.09349159 -129.82865678 364.82665794 -134.64355469 363.71801758 C-136.62045029 363.24956133 -136.62045029 363.24956133 -138.63183594 363.31567383 C-138.63183594 362.65567383 -138.63183594 361.99567383 -138.63183594 361.31567383 C-139.44044067 361.59773682 -139.44044067 361.59773682 -140.26538086 361.88549805 C-143.3126025 362.43942403 -145.47857743 361.89909296 -148.49511719 361.19848633 C-149.67605957 360.92609131 -150.85700195 360.65369629 -152.07373047 360.37304688 C-153.35103027 360.06536377 -154.62833008 359.75768066 -155.94433594 359.44067383 C-156.60399353 359.28361969 -157.26365112 359.12656555 -157.94329834 358.9647522 C-181.92644665 353.24203203 -205.28952348 346.07492804 -228.4050293 337.49658203 C-230.61765277 336.68683249 -232.83774561 335.89729 -235.0637207 335.125 C-243.41579954 332.22606082 -251.43898178 328.87648145 -259.44433594 325.12817383 C-260.35119141 324.70589508 -260.35119141 324.70589508 -261.27636719 324.27508545 C-270.80570505 319.82670276 -279.95596036 314.96823404 -288.87695312 309.40161133 C-291.63821359 307.69291815 -294.44791686 306.0694328 -297.25683594 304.44067383 C-298.13597656 303.92762695 -299.01511719 303.41458008 -299.92089844 302.88598633 C-301.91820887 301.72904282 -303.93899853 300.61240506 -305.97167969 299.51879883 C-310.20196265 297.10330265 -313.84302022 294.05971148 -317.56933594 290.94067383 C-321.5891198 287.60320051 -325.60880049 284.29927814 -329.80371094 281.18286133 C-340.18012885 273.46800538 -347.95955115 264.6058666 -355.63183594 254.31567383 C-356.22996094 253.5602832 -356.82808594 252.80489258 -357.44433594 252.02661133 C-358.63183594 250.31567383 -358.63183594 250.31567383 -358.63183594 248.31567383 C-359.29183594 248.31567383 -359.95183594 248.31567383 -360.63183594 248.31567383 C-362.05096145 245.81704258 -363.46717434 243.31683101 -364.88183594 240.81567383 C-365.27757812 240.11958008 -365.67332031 239.42348633 -366.08105469 238.70629883 C-370.20993315 231.39615335 -373.88863059 224.31123561 -376.31933594 216.25317383 C-376.53138672 215.58479492 -376.7434375 214.91641602 -376.96191406 214.2277832 C-384.08031823 191.12103909 -379.86675524 166.07829104 -370.63183594 144.31567383 C-369.97183594 144.31567383 -369.31183594 144.31567383 -368.63183594 144.31567383 C-368.36371094 143.44942383 -368.09558594 142.58317383 -367.81933594 141.69067383 C-366.66071606 138.39775419 -365.24973755 135.40439508 -363.63183594 132.31567383 C-362.97183594 132.31567383 -362.31183594 132.31567383 -361.63183594 132.31567383 C-361.550625 131.77168945 -361.46941406 131.22770508 -361.38574219 130.66723633 C-360.36380531 127.47964046 -358.60805649 125.34136024 -356.56933594 122.69067383 C-356.17029053 122.17085938 -355.77124512 121.65104492 -355.36010742 121.11547852 C-354.53308414 120.04196538 -353.70273048 118.97101006 -352.86914062 117.90258789 C-351.68006661 116.37753242 -350.50333191 114.84288043 -349.32714844 113.30786133 C-345.26903882 108.09029182 -345.26903882 108.09029182 -343.63183594 106.31567383 C-342.97183594 106.31567383 -342.31183594 106.31567383 -341.63183594 106.31567383 C-341.42558594 105.75879883 -341.21933594 105.20192383 -341.00683594 104.62817383 C-339.05500562 101.34555011 -336.68952599 99.60894137 -333.63183594 97.31567383 C-332.97183594 97.31567383 -332.31183594 97.31567383 -331.63183594 97.31567383 C-331.13683594 95.83067383 -331.13683594 95.83067383 -330.63183594 94.31567383 C-328.98773803 93.27898687 -327.31606251 92.28580713 -325.63183594 91.31567383 C-323.66895685 89.74266314 -321.73288569 88.13583555 -319.81933594 86.50317383 C-312.82563058 80.61458069 -306.336646 75.39822589 -298.02636719 71.49145508 C-295.45843722 70.23053025 -293.07315719 68.80874177 -290.63183594 67.31567383 C-279.03851039 60.31584628 -267.21938909 53.96655368 -254.94433594 48.25317383 C-253.77572021 47.7054834 -252.60710449 47.15779297 -251.40307617 46.59350586 C-245.72814215 43.99081744 -240.17411577 41.72863412 -234.15991211 40.05664062 C-230.21134179 38.89933392 -226.38413446 37.43018681 -222.52612305 36.00415039 C-193.82481378 25.42618098 -164.47972043 17.16672451 -134.34838867 11.80053711 C-132.51448947 11.47321404 -130.6819733 11.13805927 -128.85083008 10.7956543 C-122.79500281 9.66560174 -116.74247664 8.71886508 -110.63183594 7.94067383 C-109.67108154 7.81764893 -108.71032715 7.69462402 -107.72045898 7.56787109 C-104.35846694 7.14301402 -100.99541587 6.72777257 -97.63183594 6.31567383 C-96.6558847 6.19582123 -96.6558847 6.19582123 -95.66021729 6.07354736 C-91.32219616 5.54214268 -86.98294339 5.02222414 -82.64233398 4.51239014 C-81.22477265 4.345213 -79.80743466 4.17612566 -78.39038086 4.00469971 C-52.2705661 0.85702033 -26.27920154 -0.03766678 0 0 Z " fill="#8991BC" transform="translate(431.6318359375,40.684326171875)"/>
  <path d="M0 0 C13.56158953 -0.06978248 27.12313571 -0.12295406 40.68486881 -0.15543652 C46.98341822 -0.17103339 53.28184399 -0.19216164 59.58032227 -0.22631836 C65.66874327 -0.25912598 71.75704599 -0.27689787 77.84554863 -0.28463173 C80.15814511 -0.29013703 82.47073577 -0.30088655 84.78328133 -0.31719017 C108.01479717 -0.47432876 131.18895939 1.82711236 149.33984375 18.17578125 C161.8789273 31.9540213 162.59180415 47.46057916 162.140625 65.12988281 C161.63367324 75.47662739 159.12836311 85.50757325 155 95 C154.36964844 96.46179688 154.36964844 96.46179688 153.7265625 97.953125 C150.17193918 105.61225812 145.52905953 111.6637785 140 118 C139.52046875 118.62390625 139.0409375 119.2478125 138.546875 119.890625 C128.46656117 132.88572837 111.57054372 141.68350177 96 146 C95.17534241 146.25143265 94.35068481 146.5028653 93.5010376 146.76191711 C85.14684471 149.12689017 77.24249895 149.39330155 68.609375 149.29296875 C67.16921435 149.28735746 65.72904788 149.28309464 64.28887939 149.28010559 C60.54058372 149.26877711 56.79264968 149.2394172 53.04449463 149.20599365 C49.2028899 149.17503028 45.36122541 149.16154476 41.51953125 149.14648438 C34.01285788 149.11453274 26.50648005 149.06348654 19 149 C18.87157715 150.08901611 18.7431543 151.17803223 18.61083984 152.30004883 C18.43604913 153.74823098 18.26107179 155.19639061 18.0859375 156.64453125 C18.00206787 157.36000122 17.91819824 158.07547119 17.83178711 158.81262207 C17.21841316 163.84200048 16.18739129 168.61583414 14.859375 173.5078125 C13.44657085 179.24893481 12.42504577 185.06581533 11.35791016 190.87963867 C11.19597168 191.75595947 11.0340332 192.63228027 10.8671875 193.53515625 C10.72394043 194.322854 10.58069336 195.11055176 10.43310547 195.92211914 C10 198 10 198 9 201 C-7.5 201 -24 201 -41 201 C-39.87545802 187.50549624 -39.87545802 187.50549624 -38.4765625 181.35546875 C-38.25629898 180.3688903 -38.25629898 180.3688903 -38.03158569 179.36238098 C-37.5702172 177.30230884 -37.09818659 175.24488602 -36.625 173.1875 C-36.01009968 170.4733118 -35.39957044 167.75814775 -34.7890625 165.04296875 C-34.63829758 164.37681549 -34.48753265 163.71066223 -34.3321991 163.02432251 C-33.28400967 158.36399861 -32.32219356 153.6911208 -31.40234375 149.00390625 C-30.39003571 143.86846755 -29.26748902 138.81149666 -27.9375 133.75 C-26.55701507 128.39940396 -25.41238131 123.06179725 -24.4921875 117.61328125 C-23.97094106 114.84571089 -23.28482353 112.15924483 -22.5625 109.4375 C-20.97020414 103.31079818 -19.95973609 97.1299421 -19.00219727 90.87866211 C-18.09977101 85.09977101 -18.09977101 85.09977101 -17 84 C-16.54386961 81.79947909 -16.13771801 79.58859932 -15.75 77.375 C-14.47944503 70.29397024 -12.99423938 63.27329617 -11.4375 56.25 C-9.89487536 49.28806298 -8.43432238 42.37125412 -7.45703125 35.3046875 C-7 33 -7 33 -6.03613281 30.70581055 C-4.96586338 27.91085389 -4.43148618 25.35508543 -3.96484375 22.40234375 C-3.71057617 20.82936523 -3.71057617 20.82936523 -3.45117188 19.22460938 C-3.28166016 18.13986328 -3.11214844 17.05511719 -2.9375 15.9375 C-2.59384027 13.7797257 -2.24884257 11.62216396 -1.90234375 9.46484375 C-1.75273193 8.512146 -1.60312012 7.55944824 -1.44897461 6.57788086 C-1.06022141 4.34577374 -0.56270576 2.19254936 0 0 Z " fill="#222432" transform="translate(201,139)"/>
  <path d="M0 0 C13.33538169 -0.04648586 26.67074387 -0.08195149 40.0061903 -0.10362434 C46.19938725 -0.11402993 52.39252847 -0.12812988 58.58569336 -0.15087891 C64.5703568 -0.1727227 70.55496687 -0.18459285 76.53966713 -0.18975449 C78.81483105 -0.19342962 81.08999229 -0.20060583 83.36513329 -0.21146011 C106.02400188 -0.31519255 106.02400188 -0.31519255 117 2 C118.05007736 2.20164764 119.10015472 2.40329529 120.18205261 2.61105347 C134.37939147 5.45228112 146.42352251 14.50538494 155 26 C155.9299797 27.55167883 156.80755251 29.13620043 157.625 30.75 C158.02976562 31.52859375 158.43453125 32.3071875 158.8515625 33.109375 C166.37888244 52.0556905 163.03513821 76.55969973 155.42578125 94.9921875 C151.62852176 103.08238605 146.64226201 110.09953322 141 117 C140.36320313 117.80179687 139.72640625 118.60359375 139.0703125 119.4296875 C131.95800144 127.95855844 122.29668211 135.64959715 112 140 C111.01 140 110.02 140 109 140 C109 140.66 109 141.32 109 142 C105.60511062 142.98245973 102.20893071 143.96038333 98.8125 144.9375 C97.85279297 145.21529297 96.89308594 145.49308594 95.90429688 145.77929688 C94.97294922 146.04677734 94.04160156 146.31425781 93.08203125 146.58984375 C92.22843018 146.83597412 91.3748291 147.08210449 90.49536133 147.33569336 C85.75745114 148.59700376 81.47301514 149.12322094 76.55737305 149.11352539 C75.27642258 149.11344986 73.99547211 149.11337433 72.67570496 149.11329651 C71.28770915 149.10819065 69.89971375 149.10297467 68.51171875 149.09765625 C67.08396962 149.09578975 65.65621985 149.09436694 64.22846985 149.09336853 C60.48186455 149.08956165 56.7352984 149.07974707 52.9887085 149.06866455 C49.16109751 149.05841102 45.33348016 149.05386248 41.50585938 149.04882812 C34.00388639 149.03812307 26.50195368 149.02054118 19 149 C18.67 152.96 18.34 156.92 18 161 C17.34 161 16.68 161 16 161 C15.89042969 161.95777344 15.78085937 162.91554688 15.66796875 163.90234375 C14.79425191 171.32234636 13.78549135 178.70177491 12.5 186.0625 C12.38164795 186.75142334 12.2632959 187.44034668 12.14135742 188.15014648 C11.34914289 192.57204633 10.24474217 196.6434024 9 201 C-7.5 201 -24 201 -41 201 C-39.87539522 189.75395217 -39.87539522 189.75395217 -38.9140625 185.30078125 C-38.70692627 184.32641113 -38.49979004 183.35204102 -38.28637695 182.34814453 C-37.95899536 180.84550049 -37.95899536 180.84550049 -37.625 179.3125 C-37.17273063 177.1915014 -36.72090697 175.07040771 -36.26953125 172.94921875 C-36.05119629 171.93005371 -35.83286133 170.91088867 -35.60791016 169.86083984 C-34.1953711 163.21339702 -32.89907651 156.54237261 -31.57958984 149.87597656 C-29.84199469 141.13968455 -28.02154447 132.42060779 -26.2109375 123.69921875 C-25.95570313 122.46816406 -25.70046875 121.23710937 -25.4375 119.96875 C-25.18935547 118.77330566 -24.94121094 117.57786133 -24.68554688 116.34619141 C-24.09435786 113.46056583 -23.52751776 110.57170338 -22.96875 107.6796875 C-22.02510385 102.93221151 -20.78627901 98.28933653 -19.5 93.625 C-17.79862814 87.33127734 -16.41116475 81.1278811 -15.45703125 74.671875 C-14.992918 71.95859755 -14.32515952 69.39388635 -13.5625 66.75 C-11.52213838 59.60360779 -10.30816413 52.30653271 -9 45 C-6.71986532 32.45925924 -4.15631255 19.98798953 -1.52490234 7.5168457 C-1.00288536 5.01383495 -0.50005498 2.50747732 0 0 Z " fill="#212532" transform="translate(556,139)"/>
  <path d="M0 0 C16.83 0 33.66 0 51 0 C46.55555556 27.77777778 46.55555556 27.77777778 43.9296875 36.42578125 C43.07923549 39.69537615 42.48512943 42.89174512 41.94189453 46.22338867 C41.6760405 47.84563606 41.6760405 47.84563606 41.40481567 49.50065613 C41.2712265 50.32543961 41.13763733 51.15022308 41 52 C41.65129379 51.99333817 42.30258759 51.98667633 42.97361755 51.97981262 C49.83725985 51.91272807 56.70080699 51.86790065 63.56469727 51.83520508 C66.11616813 51.82024657 68.66761386 51.79987245 71.21899414 51.77368164 C108.26454641 51.40329874 108.26454641 51.40329874 121.0625 58.75 C121.67262939 59.09853027 122.28275879 59.44706055 122.91137695 59.80615234 C131.59492691 64.9127606 138.84707068 70.91009334 141.60302734 80.95361328 C142.3420726 84.76337795 142.20598141 88.57219485 142.125 92.4375 C142.11597656 93.26443359 142.10695313 94.09136719 142.09765625 94.94335938 C142.07431512 96.96236708 142.03845288 98.98122356 142 101 C141.34 101 140.68 101 140 101 C139.96261719 101.85980469 139.92523437 102.71960938 139.88671875 103.60546875 C139.48693119 110.79380586 138.56426741 117.43950539 136.81640625 124.4140625 C135.86127776 128.60931585 135.19889556 132.80933568 134.5625 137.0625 C133.56619431 143.66607476 132.40836058 150.20868824 131.0625 156.75 C129.16071361 166.00163683 127.51832523 175.28765538 125.9296875 184.59765625 C124.98775136 190.0711759 123.99352562 195.5356091 123 201 C105.51 201 88.02 201 70 201 C70 195.83777807 70.0604405 192.92934693 71.35546875 188.24609375 C71.64583008 187.15876953 71.93619141 186.07144531 72.23535156 184.95117188 C72.70666504 183.2119043 72.70666504 183.2119043 73.1875 181.4375 C76.23722553 169.78859902 78.50028143 158.20415596 80.31323242 146.30249023 C81.33560428 139.65227438 82.60443044 133.18621679 84.30419922 126.67529297 C86.91518383 116.63628618 89.60711957 105.38325293 88 95 C86.11020271 92.43196258 83.90183941 91.23974373 81 90 C78.61950787 89.67620151 78.61950787 89.67620151 76.04785156 89.68115234 C75.06713684 89.66128265 74.08642212 89.64141296 73.07598877 89.62094116 C72.02481873 89.60938995 70.97364868 89.59783875 69.890625 89.5859375 C68.80867859 89.56657135 67.72673218 89.5472052 66.61199951 89.5272522 C63.15807974 89.46749763 59.70412656 89.42108703 56.25 89.375 C53.90753759 89.33681647 51.56508916 89.29776452 49.22265625 89.2578125 C43.48189501 89.16179944 37.74104947 89.07673973 32 89 C31.81993408 90.88174927 31.81993408 90.88174927 31.63623047 92.80151367 C31.01933312 98.33047473 29.94577516 103.73097468 28.8203125 109.17578125 C28.60688202 110.22219284 28.39345154 111.26860443 28.17355347 112.34672546 C27.72326237 114.54982336 27.2710096 116.75252113 26.81689453 118.95483398 C26.12940056 122.29114468 25.44897986 125.62883951 24.76953125 128.96679688 C24.3285461 131.11987796 23.887153 133.27287553 23.4453125 135.42578125 C23.24519562 136.40742752 23.04507874 137.38907379 22.83889771 138.40046692 C21.59420768 144.41702084 20.19079539 150.37468597 18.6595459 156.3249054 C17.71719362 160.14705257 17.01950636 163.99331399 16.375 167.875 C16.25382812 168.58140625 16.13265625 169.2878125 16.0078125 170.015625 C15.66684177 172.0095625 15.33321059 174.00475102 15 176 C14.80664062 177.15757812 14.61328125 178.31515625 14.4140625 179.5078125 C14.27742188 180.33023438 14.14078125 181.15265625 14 182 C13.34 182 12.68 182 12 182 C11.86722656 183.12019531 11.73445313 184.24039063 11.59765625 185.39453125 C11.41943431 186.86720729 11.24103989 188.33986247 11.0625 189.8125 C10.97548828 190.55048828 10.88847656 191.28847656 10.79882812 192.04882812 C10.41783454 195.16733121 9.99630626 198.01108122 9 201 C-7.5 201 -24 201 -41 201 C-40.31608001 193.47688007 -39.43777576 186.64591475 -37.75 179.375 C-35.89581273 171.14599164 -34.17162146 162.90531147 -32.5625 154.625 C-30.90510524 146.14757405 -29.01509327 137.75892198 -26.9375 129.375 C-24.99026819 121.51225851 -23.3492419 113.68452775 -22.0625 105.6875 C-20.43563348 95.58217308 -18.06579799 85.73644824 -15.46118164 75.84057617 C-13.81823254 69.54787488 -12.48096897 63.32177584 -11.47851562 56.89624023 C-10.69928275 52.1798935 -9.61948119 47.53545526 -8.5625 42.875 C-6.76885869 34.84080335 -5.18607363 26.81688062 -3.98852539 18.67138672 C-3.5520213 15.8042943 -3.0817266 13.19977612 -1.98046875 10.5078125 C-0.56638459 7.19384828 -0.56638459 7.19384828 0 0 Z " fill="#212532" transform="translate(395,87)"/>
  <path d="M0 0 C1.39038986 -0.00855011 1.39038986 -0.00855011 2.80886841 -0.01727295 C4.78109592 -0.02674616 6.75333942 -0.03326609 8.72558594 -0.03710938 C11.71057995 -0.04672288 14.69485804 -0.07768471 17.6796875 -0.109375 C42.86688517 -0.25077049 42.86688517 -0.25077049 51.8828125 8.203125 C52.38941406 8.63753906 52.89601563 9.07195312 53.41796875 9.51953125 C57.57242827 13.95172622 57.46670422 19.18261017 57.33398438 24.94995117 C56.62582645 39.50894313 51.85595999 53.36340829 41.8828125 64.203125 C30.7854728 72.7249729 18.11794093 75.39821204 4.4453125 75.30078125 C3.67977051 75.2993663 2.91422852 75.29795135 2.12548828 75.29649353 C-0.28877892 75.29095353 -2.70294894 75.27841279 -5.1171875 75.265625 C-6.76692573 75.26060223 -8.41666544 75.25604069 -10.06640625 75.25195312 C-14.08337005 75.24100386 -18.10026237 75.22378166 -22.1171875 75.203125 C-21.58198822 67.01350561 -20.28733693 59.03349293 -18.76254272 50.97924805 C-18.07977416 47.37224839 -17.41243425 43.76240921 -16.74609375 40.15234375 C-16.60992142 39.41571503 -16.47374908 38.6790863 -16.33345032 37.9201355 C-15.38570695 32.75825675 -14.49581838 27.58877694 -13.64453125 22.41015625 C-13.52991547 21.71298996 -13.41529968 21.01582367 -13.29721069 20.29753113 C-12.75086873 16.96071626 -12.21200864 13.62287005 -11.67871094 10.28393555 C-11.48696289 9.10226807 -11.29521484 7.92060059 -11.09765625 6.703125 C-10.93160889 5.6615625 -10.76556152 4.62 -10.59448242 3.546875 C-9.52500897 -1.70475934 -4.42158131 0.02085815 0 0 Z " fill="#8891BA" transform="translate(608.1171875,175.796875)"/>
  <path d="M0 0 C5.63758524 -0.07477921 11.27487465 -0.1288965 16.9128418 -0.16479492 C18.82630449 -0.17977783 20.73973347 -0.20017126 22.65307617 -0.22631836 C38.14337535 -0.43253221 52.05196496 -0.13339629 64 11 C66.76514071 14.85811862 66.29459636 19.2011712 66.25 23.75 C66.26160156 24.91015625 66.26160156 24.91015625 66.2734375 26.09375 C66.22880103 39.39541825 60.86896966 53.06887828 52 63 C49.1613604 65.34324002 46.21309505 67.21494719 43 69 C42.071875 69.556875 41.14375 70.11375 40.1875 70.6875 C28.64465689 75.4404354 17.50254142 75.3697749 5.25 75.1875 C3.47396974 75.17241866 1.69792703 75.15873639 -0.078125 75.14648438 C-4.38572989 75.11376858 -8.6927238 75.06217936 -13 75 C-11.94141912 66.41995287 -11.94141912 66.41995287 -11.38671875 62.87109375 C-11.27513428 62.15719482 -11.1635498 61.4432959 -11.04858398 60.70776367 C-9.72095208 52.36046884 -8.35516303 44.02000889 -6.9375 35.6875 C-6.77531982 34.71546631 -6.61313965 33.74343262 -6.44604492 32.74194336 C-6.20785034 31.35954468 -6.20785034 31.35954468 -5.96484375 29.94921875 C-5.8268335 29.13799561 -5.68882324 28.32677246 -5.54663086 27.4909668 C-5 25 -5 25 -4.04125977 22.30786133 C-2.67491677 17.96727956 -2.03826043 13.61892778 -1.375 9.125 C-1.2409375 8.24585938 -1.106875 7.36671875 -0.96875 6.4609375 C-0.64112941 4.30800222 -0.31991492 2.15409378 0 0 Z " fill="#8891B9" transform="translate(244,176)"/>
  <path d="M0 0 C0.33 0 0.66 0 1 0 C1.02687279 1.81242052 1.04633715 3.62495233 1.0625 5.4375 C1.07410156 6.44683594 1.08570313 7.45617187 1.09765625 8.49609375 C1 11 1 11 0 12 C-0.36760731 14.32817964 -0.70241581 16.6618385 -1 19 C-1.66 19 -2.32 19 -3 19 C-2.37679879 12.56025419 -1.35991738 6.32427599 0 0 Z " fill="#3B405C" transform="translate(167,300)"/>
  <path d="M0 0 C0.33 0.66 0.66 1.32 1 2 C0.01 3.485 0.01 3.485 -1 5 C-1.66 5 -2.32 5 -3 5 C-3.3403125 5.86625 -3.3403125 5.86625 -3.6875 6.75 C-5.33038023 9.5663661 -7.39533227 11.08077114 -10 13 C-10.66 12.67 -11.32 12.34 -12 12 C-11.13375 11.319375 -10.2675 10.63875 -9.375 9.9375 C-5.8104467 6.98401298 -2.91215245 3.58339327 0 0 Z " fill="#767B9D" transform="translate(343,254)"/>
  <path d="M0 0 C1.9078584 3.1749094 2.1609041 5.10585211 1.625 8.75 C1.51414062 9.54921875 1.40328125 10.3484375 1.2890625 11.171875 C1.19367187 11.77515625 1.09828125 12.3784375 1 13 C0.01 13 -0.98 13 -2 13 C-1.48041715 8.62065881 -0.94324258 4.31196609 0 0 Z " fill="#2A304A" transform="translate(555,144)"/>
  <path d="M0 0 C0.33 0.66 0.66 1.32 1 2 C-0.09346881 3.34212062 -1.2001575 4.67347975 -2.3125 6 C-3.23482422 7.11375 -3.23482422 7.11375 -4.17578125 8.25 C-6 10 -6 10 -9 10 C-6.03 6.7 -3.06 3.4 0 0 Z " fill="#7D82A6" transform="translate(698,254)"/>
  <path d="M0 0 C0.66 0 1.32 0 2 0 C1.07506212 3.78383679 0.60628829 5.56693694 -2.625 7.875 C-3.40875 8.24625 -4.1925 8.6175 -5 9 C-3.50079488 5.88626628 -1.91847864 2.87771795 0 0 Z " fill="#7A7E9D" transform="translate(706,242)"/>
  <path d="M0 0 C0.99 0.33 1.98 0.66 3 1 C3 1.66 3 2.32 3 3 C0.64561267 4.42944945 -0.48032433 5.08661261 -3.25 4.625 C-3.8275 4.41875 -4.405 4.2125 -5 4 C-2.6875 1.9375 -2.6875 1.9375 0 0 Z " fill="#2A3142" transform="translate(294,239)"/>
  <path d="M0 0 C0.33 0 0.66 0 1 0 C1.36923077 7.38461538 1.36923077 7.38461538 -0.5 10.5 C-0.995 10.995 -1.49 11.49 -2 12 C-2.26252625 7.66831683 -1.29243536 4.1196377 0 0 Z " fill="#737C9A" transform="translate(567,327)"/>
  <path d="M0 0 C0.33 0.66 0.66 1.32 1 2 C0.34 2 -0.32 2 -1 2 C-1.33 2.99 -1.66 3.98 -2 5 C-3.98 5.33 -5.96 5.66 -8 6 C-5.63379989 3.38472619 -3.057952 1.73559438 0 0 Z " fill="#8185A4" transform="translate(680,271)"/>
</svg>
